<?xml version="1.0" standalone="no"?><!DOCTYPE svg PUBLIC "-//W3C//DTD SVG 1.1//EN" "http://www.w3.org/Graphics/SVG/1.1/DTD/svg11.dtd"><svg t="1608187127633" class="icon" viewBox="0 0 1109 1024" version="1.1" xmlns="http://www.w3.org/2000/svg" p-id="1043" xmlns:xlink="http://www.w3.org/1999/xlink" width="216.6015625" height="200"><defs><style type="text/css"></style></defs><path d="M614.413653 64.853333v-3.413333q0-23.893333 15.36-42.666667t39.253334-18.773333 42.666666 15.36 20.48 40.96-15.36 42.666667-40.96 17.066666l-10.24 3.413334 3.413334 5.12-3.413334 18.773333-6.826666 54.613333q3.413333 3.413333 3.413333 6.826667l-6.826667 34.133333q-3.413333 6.826667-6.826666 10.24l-3.413334 13.653334q-6.826667 27.306667-11.946666 44.373333t-8.533334 27.306667V341.333333q-3.413333 17.066667-5.12 27.306667t-11.946666 34.133333q-6.826667 13.653333 0 44.373334l3.413333 3.413333q0 10.24 8.533333 23.893333t8.533334 23.893334q3.413333 68.266667-10.24 116.053333l6.826666 20.48q40.96 20.48 23.893334 44.373333l17.066666 6.826667q40.96 20.48 58.026667 35.84t34.133333 32.426667q13.653333 3.413333 20.48 10.24l10.24 3.413333q71.68 47.786667 143.36 116.053333l13.653334 10.24v3.413334l-3.413334 6.826666 10.24 6.826667h3.413334q10.24 6.826667 13.653333 6.826667h3.413333q3.413333 0 6.826667-3.413334l6.826667-3.413333q6.826667-6.826667 13.653333-10.24h13.653333q3.413333 0 0 3.413333l-13.653333 6.826667-17.066667 20.48h23.893334l23.893333 3.413333q10.24-3.413333 17.066667-6.826666l17.066666-10.24q10.24-3.413333 20.48 6.826666h3.413334q3.413333 3.413333-3.413334 10.24l-40.96 37.546667q-17.066667 13.653333-30.72 17.066667l-44.373333 30.72q-3.413333 3.413333-6.826667 0l-10.24-13.653334-6.826666-13.653333-8.533334-11.946667-10.24-13.653333-8.533333-10.24-6.826667-8.533333-13.653333-10.24q-6.826667 0-13.653333-3.413334l-44.373334-34.133333q-10.24 0-23.893333-10.24-51.2-44.373333-68.266667-54.613333l-20.48-13.653334-40.96-6.826666q-20.48-3.413333-54.613333-20.48l-27.306667-13.653334q-27.306667-13.653333-37.546666-13.653333l-13.653334-6.826667q-13.653333-3.413333-20.48-6.826666l-6.826666-6.826667q-6.826667 0-13.653334 3.413333l-68.266666 34.133334-85.333334 37.546666q-34.133333 27.306667-64.853333 44.373334l-37.546667 17.066666-58.026666 40.96q-6.826667 6.826667-13.653334 0l-6.826666 6.826667q-10.24 3.413333-13.653334 3.413333l-13.653333 6.826667v6.826667h-6.826667l-6.826666 10.24q-6.826667 13.653333-13.653334 15.36t-8.533333 5.12-3.413333 5.12l-6.826667 6.826666-10.24 6.826667-15.36-1.706667-20.48 3.413334-13.653333 3.413333q-17.066667 3.413333-27.306667-5.12t-17.066667-25.6q-6.826667-10.24 6.826667-17.066667l3.413333-3.413333q3.413333-3.413333 10.24-3.413333h20.48L68.28032 938.666667l13.653333-3.413334q0-6.826667 3.413334-10.24 3.413333-3.413333 10.24-3.413333v-3.413333q-3.413333-6.826667-3.413334-13.653334-3.413333-6.826667-1.706666-10.24t3.413333-3.413333h1.706667l3.413333 10.24q3.413333 17.066667 10.24 10.24l3.413333-6.826667q3.413333-6.826667 10.24-6.826666l6.826667 6.826666 6.826667-6.826666-3.413334-3.413334q0-3.413333 3.413334-3.413333l13.653333-13.653333q17.066667-20.48 40.96-37.546667 47.786667-37.546667 102.4-58.026667 17.066667-17.066667 37.546667-17.066666 13.653333-23.893333 40.96-51.2 23.893333-17.066667 34.133333-23.893334 6.826667-13.653333 17.066667-13.653333H426.68032l6.826667-6.826667q6.826667-3.413333 10.24-6.826666v-17.066667q0-17.066667 3.413333-27.306667t17.066667-10.24l13.653333-13.653333q-6.826667-13.653333-6.826667-30.72h-3.413333q-6.826667-10.24-6.826667-20.48-10.24-17.066667-13.653333-27.306667h-10.24q-3.413333 10.24-17.066667 13.653334l-3.413333 6.826666q-13.653333 23.893333-23.893333 35.84t-37.546667 29.013334q-17.066667 17.066667-23.893333 37.546666-3.413333 10.24 0 20.48l-3.413334 6.826667h3.413334q0 6.826667 3.413333 6.826667h3.413333q6.826667 3.413333 6.826667 8.533333t-10.24 3.413333-15.36-6.826666-8.533333-5.12l-10.24 10.24q-6.826667 10.24-13.653334 8.533333t-3.413333-5.12l3.413333-3.413333q3.413333-6.826667 0-6.826667l-27.306666 6.826667q-3.413333 3.413333-8.533334 0t1.706667-6.826667l17.066667-6.826667q0-3.413333-3.413334-3.413333-13.653333 6.826667-27.306666 3.413333l-17.066667-3.413333-3.413333-3.413333q0-3.413333 3.413333-3.413334 13.653333 3.413333 34.133333-3.413333l23.893334-10.24 27.306666-30.72 3.413334-6.826667q13.653333-27.306667 29.013333-49.493333t32.426667-35.84l3.413333-13.653333q6.826667-13.653333 13.653333-23.893334t17.066667-27.306666l10.24-13.653334q13.653333-20.48 30.72-20.48l10.24-10.24q3.413333-3.413333 3.413333-10.24l6.826667-6.826666-3.413333-3.413334q-20.48-17.066667-20.48-30.72-3.413333-23.893333 15.36-40.96t37.546666-15.36 29.013334 11.946667l6.826666 6.826667q3.413333 0 3.413334 3.413333l13.653333 6.826667v10.24q6.826667 6.826667 6.826667 10.24 6.826667-10.24 20.48-23.893334l17.066666-54.613333q0-13.653333 6.826667-27.306667l6.826667-10.24v-6.826666l10.24-40.96h6.826666l10.24-40.96q3.413333-10.24 0-23.893334l-13.653333-34.133333z" p-id="1044"></path></svg>